<?xml version="1.0" encoding="iso-8859-1"?>
<!-- Generator: Adobe Illustrator 19.0.0, SVG Export Plug-In . SVG Version: 6.00 Build 0)  -->
<svg version="1.1" id="Layer_1" xmlns="http://www.w3.org/2000/svg" xmlns:xlink="http://www.w3.org/1999/xlink" x="0px" y="0px"
	 viewBox="0 0 512 512" style="enable-background:new 0 0 512 512;" xml:space="preserve">
<path style="fill:#50D1DD;" d="M505.844,200.019C480.309,85.562,378.154,0,256,0C114.615,0,0,114.616,0,256s114.615,256,256,256
	c10.12,0,20.097-0.607,29.91-1.749L505.844,200.019z"/>
<path style="fill:#25BBCC;" d="M512,256c0-19.23-2.136-37.96-6.156-55.981l-56.174-56.174L256,480.341l29.91,29.91
	C413.2,495.436,512,387.266,512,256z"/>
<path style="fill:#FFB082;" d="M347.271,203.13L256.001,256c-0.022-0.011-91.27-52.87-91.27-52.87l91.27-52.87L347.271,203.13z"/>
<polygon style="fill:#FFFFFF;" points="347.271,97.391 256.001,150.261 164.732,97.391 256.001,44.522 "/>
<polygon style="fill:#B7D9DD;" points="164.732,308.87 164.732,414.609 73.462,361.739 73.462,256 "/>
<polygon style="fill:#FF754F;" points="255.979,255.989 255.979,361.728 164.732,308.87 164.732,203.13 "/>
<g>
	<polygon style="fill:#C7E7EB;" points="255.979,361.728 255.979,467.467 164.732,414.609 164.732,308.87 	"/>
	<polygon style="fill:#C7E7EB;" points="164.732,203.13 164.732,308.87 73.462,256 73.462,150.261 	"/>
</g>
<polygon style="fill:#88ACB5;" points="438.54,256 438.54,361.739 347.271,414.609 347.271,308.87 "/>
<path style="fill:#FF4719;" d="M347.271,203.13V308.87l-91.27,52.87c-0.022-0.011-0.022-105.75-0.022-105.75
	C256.001,256,347.271,203.13,347.271,203.13z"/>
<path style="fill:#A7CBCF;" d="M347.271,308.87v105.739l-91.27,52.87c-0.022-0.011-0.022-105.75-0.022-105.75
	C256.001,361.739,347.271,308.87,347.271,308.87z"/>
<polygon style="fill:#B7D9DD;" points="438.54,150.261 438.54,256 347.271,308.87 347.271,203.13 "/>
<g>
	<polygon style="fill:#E5FAFC;" points="256.001,150.261 164.732,203.13 73.462,150.261 164.732,97.391 	"/>
	<polygon style="fill:#E5FAFC;" points="438.54,150.261 347.271,203.13 256.001,150.261 347.271,97.391 	"/>
</g>
<path style="fill:#111449;" d="M256,31.658L62.33,143.845v224.308L256,480.341l193.67-112.187V143.845L256,31.658z M427.409,249.583
	L358.4,289.558v-80.013l69.009-39.974V249.583z M84.591,169.572l69.009,39.974v80.013l-69.009-39.975V169.572z M347.27,190.267
	l-69.064-40.006l69.064-40.006l69.064,40.006L347.27,190.267z M325.064,203.13L256,243.137l-69.064-40.006L256,163.124
	L325.064,203.13z M164.73,190.267l-69.064-40.006l69.064-40.006l69.064,40.006L164.73,190.267z M175.861,222.442l68.988,39.962
	v80.013l-68.988-39.963V222.442z M244.848,368.142v80.013l-68.988-39.963v-80.012L244.848,368.142z M267.109,368.166l69.03-39.985
	v80.013l-69.03,39.986V368.166z M267.109,342.44v-80.013l69.03-39.985v80.013L267.109,342.44z M325.063,97.391L256,137.397
	l-69.063-40.006L256,57.385L325.063,97.391z M84.591,275.311l69.009,39.974v80.013l-69.009-39.974V275.311z M358.4,395.297v-80.013
	l69.009-39.974v80.013L358.4,395.297z"/>
<g>
</g>
<g>
</g>
<g>
</g>
<g>
</g>
<g>
</g>
<g>
</g>
<g>
</g>
<g>
</g>
<g>
</g>
<g>
</g>
<g>
</g>
<g>
</g>
<g>
</g>
<g>
</g>
<g>
</g>
</svg>
